<?xml version="1.0" encoding="UTF-8"?>
<svg version="1.1" viewBox="0 0 128 24" xmlns="http://www.w3.org/2000/svg" xmlns:cc="http://creativecommons.org/ns#" xmlns:dc="http://purl.org/dc/elements/1.1/" xmlns:rdf="http://www.w3.org/1999/02/22-rdf-syntax-ns#">
<metadata>
<rdf:RDF>
<cc:Work rdf:about="">
<dc:format>image/svg+xml</dc:format>
<dc:type rdf:resource="http://purl.org/dc/dcmitype/StillImage"/>
<dc:title/>
</cc:Work>
</rdf:RDF>
</metadata>
<text x="56.059723" y="-161.29745" fill="#89a02c" font-family="Sans" font-size="15px" letter-spacing="0px" word-spacing="0px" line-height="125%" xml:space="preserve"><tspan x="56.059723" y="-161.29745" fill="#89a02c"/></text>
<text x="86.491425" y="-78.544594" fill="#89a02c" fill-opacity="0" font-family="Sans" font-size="15px" letter-spacing="0px" word-spacing="0px" line-height="125%" xml:space="preserve"><tspan x="86.491425" y="-78.544594" fill="#89a02c"/></text>
<path d="m112 0-6 23 4 1 6-23zm-104.77 2.5996c-2.0083 2.1321-4.0241 4.2572-6.0372 6.3848-1.5924 1.6835-1.5922 4.3535 0 6.0371 2.0132 2.1275 4.027 4.2544 6.0372 6.3848l2.9063-2.75c-2.0095-2.131-4.0241-4.2572-6.0372-6.3848-0.11203-0.1184-0.11194-0.4187 0-0.5371 2.0137-2.1277 4.0282-4.2546 6.0372-6.3867zm113.54 0c-0.96878 0.9167-1.9375 1.8333-2.9063 2.75 2.0135 2.1278 4.0262 4.2564 6.0391 6.3848 0.11194 0.1183 0.11203 0.4187 0 0.5371-2.0129 2.1284-4.0256 4.257-6.0391 6.3848l2.9063 2.75c2.0136-2.1277 4.0262-4.2564 6.0391-6.3848 1.5922-1.6836 1.5924-4.3536 0-6.0371-2.0129-2.1284-4.0257-4.2569-6.0391-6.3848zm-102.77 0.4004c-2.7449 0-5.0001 2.2552-5.0001 5v13h4v-6h8.0001v6h4v-13c0-2.7448-2.2551-5-5.0001-5zm13 0v13c0 2.7449 2.2551 5 5.0001 5h4c1.1597 0 2.1565-0.4911 3-1.1582 0.84355 0.6671 1.8403 1.1582 3 1.1582h4c2.7449 0 5.0001-2.2551 5.0001-5v-13h-4v13c0 0.6071-0.3929 1-1 1h-4c-0.60712 0-1-0.3929-1-1v-13h-4v13c0 0.6071-0.3929 1-1 1h-4c-0.60711 0-1-0.3929-1-1v-13zm31 0c-2.7449 0-5.0001 2.2552-5.0001 5v13h4v-13c0-0.6071 0.3929-1 1-1h4c0.60711 0 1 0.3929 1 1v13h4v-13c0-0.6071 0.3929-1 1-1h4c0.60712 0 1 0.3929 1 1v13h4v-13c0-2.7448-2.2551-5-5.0001-5h-4c-1.1599 0-2.1564 0.4929-3 1.1602-0.84362-0.6673-1.8401-1.1602-3-1.1602zm21 0v13c0 2.7449 2.2551 5 5.0001 5h9.0001v-4h-9.0001c-0.60711 0-1-0.3929-1-1v-13zm-65.001 4h6.0001c0.60712 0 1 0.3929 1 1v3h-8.0001v-3c0-0.6071 0.3929-1 1-1z" color="#000000" fill="#89a02c" style="text-indent:0;text-transform:none"/>
<path d="m93.858 5.5203h-3.9458q0-1.6155 0.12728-2.4575 0.23498-1.4882 1.3512-2.0365 0.74412-0.36227 2.0855-0.49934 1.3414-0.14687 4.0535-0.14687 4.0828 0 5.2284 0.09791 1.1456 0.088119 1.8016 0.47976 0.72454 0.4308 0.99868 1.2239 0.28394 0.79307 0.28394 2.4282 0 1.1749-0.13707 1.8603-0.12728 0.67558-0.45039 1.1455-0.4308 0.63642-1.1456 0.89098-1.2141 0.4308-2.9471 0.53851-4.1906 0.24478-5.4144 0.36227-1.2239 0.1077-1.4882 0.28394-0.24478 0.16645-0.31331 0.36227-0.06854 0.18603-0.09791 0.78328h12.209v3.0744h-15.95q-0.03916-0.79307-0.03916-1.5274 0-2.3009 0.14687-3.2898 0.29373-1.8799 2.1638-2.3498 0.72454-0.17624 1.3218-0.24478 0.60704-0.068537 3.515-0.29373 2.8198-0.2154 3.3485-0.27415 0.52871-0.058746 0.88119-0.17624 0.35247-0.11749 0.46997-0.33289 0.11749-0.22519 0.11749-0.7637 0-0.57767-0.13708-0.83224-0.12728-0.25457-0.46996-0.36227-0.43081-0.14687-3.0646-0.14687-2.2519 0-3.1429 0.078328-0.89098 0.068537-1.1064 0.26436-0.16645 0.16645-0.2154 0.46018-0.03916 0.29373-0.03916 1.4001z" fill="#782167" style="font-variant-caps:normal;font-variant-east-asian:normal;font-variant-ligatures:normal;font-variant-numeric:normal;text-decoration-color:#000000;text-decoration-line:none"/>
</svg>
